solid OpenSCAD_Model
  facet normal 1 -0 0
    outer loop
      vertex 34 -7.5 3
      vertex 34 7.5 0
      vertex 34 7.5 3
    endloop
  endfacet
  facet normal 1 0 0
    outer loop
      vertex 34 7.5 0
      vertex 34 -7.5 3
      vertex 34 -7.5 0
    endloop
  endfacet
  facet normal 0 0 1
    outer loop
      vertex 34 7.5 3
      vertex 17 3.1 3
      vertex 34 -7.5 3
    endloop
  endfacet
  facet normal -0 0 1
    outer loop
      vertex -12 7.5 3
      vertex 17 3.1 3
      vertex 34 7.5 3
    endloop
  endfacet
  facet normal 0 0 1
    outer loop
      vertex 17 3.1 3
      vertex -12 7.5 3
      vertex -12 3.1 3
    endloop
  endfacet
  facet normal -0 0 1
    outer loop
      vertex 17 -3.1 3
      vertex 34 -7.5 3
      vertex 17 3.1 3
    endloop
  endfacet
  facet normal 0 0 1
    outer loop
      vertex -12 -7.5 3
      vertex 17 -3.1 3
      vertex -12 -3.1 3
    endloop
  endfacet
  facet normal 0 0 1
    outer loop
      vertex 17 -3.1 3
      vertex -12 -7.5 3
      vertex 34 -7.5 3
    endloop
  endfacet
  facet normal 0 0 -1
    outer loop
      vertex -12 -7.5 0
      vertex 34 7.5 0
      vertex 34 -7.5 0
    endloop
  endfacet
  facet normal -0 0 -1
    outer loop
      vertex 34 7.5 0
      vertex -12 -7.5 0
      vertex -12 7.5 0
    endloop
  endfacet
  facet normal -1 0 0
    outer loop
      vertex -12 7.5 0
      vertex -12 3.1 3
      vertex -12 7.5 3
    endloop
  endfacet
  facet normal -1 0 0
    outer loop
      vertex -12 3.1 3
      vertex -12 -3.1 3
      vertex -12 3.1 8.1
    endloop
  endfacet
  facet normal -1 0 0
    outer loop
      vertex -12 7.5 0
      vertex -12 -3.1 3
      vertex -12 3.1 3
    endloop
  endfacet
  facet normal -1 0 0
    outer loop
      vertex -12 -7.5 0
      vertex -12 -3.1 3
      vertex -12 7.5 0
    endloop
  endfacet
  facet normal -1 -0 0
    outer loop
      vertex -12 -3.1 3
      vertex -12 -7.5 0
      vertex -12 -7.5 3
    endloop
  endfacet
  facet normal -1 -0 0
    outer loop
      vertex -12 3.1 8.1
      vertex -12 -3.1 3
      vertex -12 -3.1 8.1
    endloop
  endfacet
  facet normal 0 1 -0
    outer loop
      vertex 34 7.5 0
      vertex -12 7.5 3
      vertex 34 7.5 3
    endloop
  endfacet
  facet normal 0 1 0
    outer loop
      vertex -12 7.5 3
      vertex 34 7.5 0
      vertex -12 7.5 0
    endloop
  endfacet
  facet normal 0 -1 0
    outer loop
      vertex -12 -7.5 0
      vertex 34 -7.5 3
      vertex -12 -7.5 3
    endloop
  endfacet
  facet normal 0 -1 -0
    outer loop
      vertex 34 -7.5 3
      vertex -12 -7.5 0
      vertex 34 -7.5 0
    endloop
  endfacet
  facet normal 1 -0 0
    outer loop
      vertex 17 -3.1 8.1
      vertex 17 3.1 3
      vertex 17 3.1 8.1
    endloop
  endfacet
  facet normal 1 0 0
    outer loop
      vertex 17 3.1 3
      vertex 17 -3.1 8.1
      vertex 17 -3.1 3
    endloop
  endfacet
  facet normal -0 0 1
    outer loop
      vertex -12 3.1 8.1
      vertex -9 -3.1 8.1
      vertex -9 3.1 8.1
    endloop
  endfacet
  facet normal 0 0 1
    outer loop
      vertex -9 -3.1 8.1
      vertex -12 3.1 8.1
      vertex -12 -3.1 8.1
    endloop
  endfacet
  facet normal 0 0 1
    outer loop
      vertex -9 3.1 8.1
      vertex 9 3.1 8.1
      vertex 9 8.1 8.1
    endloop
  endfacet
  facet normal 0 0 1
    outer loop
      vertex 9 3.1 8.1
      vertex -9 3.1 8.1
      vertex 9 -3.1 8.1
    endloop
  endfacet
  facet normal 0 0 1
    outer loop
      vertex -9 3.1 8.1
      vertex 9 8.1 8.1
      vertex -9 8.1 8.1
    endloop
  endfacet
  facet normal 0 0 1
    outer loop
      vertex -9 -3.1 8.1
      vertex 9 -3.1 8.1
      vertex -9 3.1 8.1
    endloop
  endfacet
  facet normal 0 0 1
    outer loop
      vertex 9 -3.1 8.1
      vertex -9 -3.1 8.1
      vertex 9 -8.1 8.1
    endloop
  endfacet
  facet normal 0 0 1
    outer loop
      vertex 9 -8.1 8.1
      vertex -9 -3.1 8.1
      vertex -9 -8.1 8.1
    endloop
  endfacet
  facet normal -0 0 1
    outer loop
      vertex 9 3.1 8.1
      vertex 17 -3.1 8.1
      vertex 17 3.1 8.1
    endloop
  endfacet
  facet normal 0 0 1
    outer loop
      vertex 17 -3.1 8.1
      vertex 9 3.1 8.1
      vertex 9 -3.1 8.1
    endloop
  endfacet
  facet normal 0 1 0
    outer loop
      vertex 17 3.1 8.1
      vertex 9 3.1 6.2
      vertex 9 3.1 8.1
    endloop
  endfacet
  facet normal 0 1 0
    outer loop
      vertex -12 3.1 3
      vertex 9 3.1 6.2
      vertex 17 3.1 3
    endloop
  endfacet
  facet normal 0 1 -0
    outer loop
      vertex 17 3.1 3
      vertex 9 3.1 6.2
      vertex 17 3.1 8.1
    endloop
  endfacet
  facet normal 0 1 -0
    outer loop
      vertex -9 3.1 6.2
      vertex -12 3.1 8.1
      vertex -9 3.1 8.1
    endloop
  endfacet
  facet normal 0 1 0
    outer loop
      vertex -9 3.1 6.2
      vertex -12 3.1 3
      vertex -12 3.1 8.1
    endloop
  endfacet
  facet normal 0 1 0
    outer loop
      vertex 9 3.1 6.2
      vertex -12 3.1 3
      vertex -9 3.1 6.2
    endloop
  endfacet
  facet normal 0 -1 0
    outer loop
      vertex -12 -3.1 8.1
      vertex -9 -3.1 6.2
      vertex -9 -3.1 8.1
    endloop
  endfacet
  facet normal 0 -1 -0
    outer loop
      vertex -9 -3.1 6.2
      vertex -12 -3.1 3
      vertex 9 -3.1 6.2
    endloop
  endfacet
  facet normal 0 -1 0
    outer loop
      vertex -12 -3.1 3
      vertex -9 -3.1 6.2
      vertex -12 -3.1 8.1
    endloop
  endfacet
  facet normal 0 -1 0
    outer loop
      vertex 9 -3.1 6.2
      vertex 17 -3.1 8.1
      vertex 9 -3.1 8.1
    endloop
  endfacet
  facet normal 0 -1 0
    outer loop
      vertex 9 -3.1 6.2
      vertex 17 -3.1 3
      vertex 17 -3.1 8.1
    endloop
  endfacet
  facet normal 0 -1 0
    outer loop
      vertex 17 -3.1 3
      vertex 9 -3.1 6.2
      vertex -12 -3.1 3
    endloop
  endfacet
  facet normal 1 -0 0
    outer loop
      vertex 9 3.1 8.1
      vertex 9 8.1 6.2
      vertex 9 8.1 8.1
    endloop
  endfacet
  facet normal 1 0 0
    outer loop
      vertex 9 8.1 6.2
      vertex 9 3.1 8.1
      vertex 9 3.1 6.2
    endloop
  endfacet
  facet normal 1 -0 0
    outer loop
      vertex 9 -8.1 8.1
      vertex 9 -3.1 6.2
      vertex 9 -3.1 8.1
    endloop
  endfacet
  facet normal 1 0 0
    outer loop
      vertex 9 -3.1 6.2
      vertex 9 -8.1 8.1
      vertex 9 -8.1 6.2
    endloop
  endfacet
  facet normal 0 0 -1
    outer loop
      vertex -9 3.1 6.2
      vertex 9 8.1 6.2
      vertex 9 3.1 6.2
    endloop
  endfacet
  facet normal -0 0 -1
    outer loop
      vertex 9 8.1 6.2
      vertex -9 3.1 6.2
      vertex -9 8.1 6.2
    endloop
  endfacet
  facet normal 0 0 -1
    outer loop
      vertex -9 -8.1 6.2
      vertex 9 -3.1 6.2
      vertex 9 -8.1 6.2
    endloop
  endfacet
  facet normal -0 0 -1
    outer loop
      vertex 9 -3.1 6.2
      vertex -9 -8.1 6.2
      vertex -9 -3.1 6.2
    endloop
  endfacet
  facet normal -1 0 0
    outer loop
      vertex -9 3.1 6.2
      vertex -9 8.1 8.1
      vertex -9 8.1 6.2
    endloop
  endfacet
  facet normal -1 -0 0
    outer loop
      vertex -9 8.1 8.1
      vertex -9 3.1 6.2
      vertex -9 3.1 8.1
    endloop
  endfacet
  facet normal -1 0 0
    outer loop
      vertex -9 -8.1 6.2
      vertex -9 -3.1 8.1
      vertex -9 -3.1 6.2
    endloop
  endfacet
  facet normal -1 -0 0
    outer loop
      vertex -9 -3.1 8.1
      vertex -9 -8.1 6.2
      vertex -9 -8.1 8.1
    endloop
  endfacet
  facet normal 0 1 -0
    outer loop
      vertex 9 8.1 6.2
      vertex -9 8.1 8.1
      vertex 9 8.1 8.1
    endloop
  endfacet
  facet normal 0 1 0
    outer loop
      vertex -9 8.1 8.1
      vertex 9 8.1 6.2
      vertex -9 8.1 6.2
    endloop
  endfacet
  facet normal 0 -1 0
    outer loop
      vertex -9 -8.1 6.2
      vertex 9 -8.1 8.1
      vertex -9 -8.1 8.1
    endloop
  endfacet
  facet normal 0 -1 -0
    outer loop
      vertex 9 -8.1 8.1
      vertex -9 -8.1 6.2
      vertex 9 -8.1 6.2
    endloop
  endfacet
endsolid OpenSCAD_Model
