solid OpenSCAD_Model
  facet normal 0.965925 -0.258823 0
    outer loop
      vertex 3.65 -4.4 -6.3
      vertex 3.93805 -3.325 -7.225
      vertex 3.93805 -3.325 -6.3
    endloop
  endfacet
  facet normal 0.965925 -0.258823 0
    outer loop
      vertex 3.93805 -3.325 -7.225
      vertex 3.65 -4.4 -6.3
      vertex 3.65 -4.4 -7.225
    endloop
  endfacet
  facet normal -0.707107 0.707107 0
    outer loop
      vertex 6.875 -6.26195 -7.225
      vertex 7.66195 -5.475 -6.3
      vertex 7.66195 -5.475 -7.225
    endloop
  endfacet
  facet normal -0.707107 0.707107 0
    outer loop
      vertex 7.66195 -5.475 -6.3
      vertex 6.875 -6.26195 -7.225
      vertex 6.875 -6.26195 -6.3
    endloop
  endfacet
  facet normal -0.965925 0.258823 0
    outer loop
      vertex 7.66195 -5.475 -7.225
      vertex 7.95 -4.4 -6.3
      vertex 7.95 -4.4 -7.225
    endloop
  endfacet
  facet normal -0.965925 0.258823 0
    outer loop
      vertex 7.95 -4.4 -6.3
      vertex 7.66195 -5.475 -7.225
      vertex 7.66195 -5.475 -6.3
    endloop
  endfacet
  facet normal -0.258823 0.965925 0
    outer loop
      vertex 6.875 -6.26195 -7.225
      vertex 5.8 -6.55 -6.3
      vertex 6.875 -6.26195 -6.3
    endloop
  endfacet
  facet normal -0.258823 0.965925 0
    outer loop
      vertex 5.8 -6.55 -6.3
      vertex 6.875 -6.26195 -7.225
      vertex 5.8 -6.55 -7.225
    endloop
  endfacet
  facet normal -0.258823 -0.965925 0
    outer loop
      vertex 5.8 -2.25 -7.225
      vertex 6.875 -2.53805 -6.3
      vertex 5.8 -2.25 -6.3
    endloop
  endfacet
  facet normal -0.258823 -0.965925 -0
    outer loop
      vertex 6.875 -2.53805 -6.3
      vertex 5.8 -2.25 -7.225
      vertex 6.875 -2.53805 -7.225
    endloop
  endfacet
  facet normal -0.965925 -0.258823 0
    outer loop
      vertex 7.95 -4.4 -7.225
      vertex 7.66195 -3.325 -6.3
      vertex 7.66195 -3.325 -7.225
    endloop
  endfacet
  facet normal -0.965925 -0.258823 0
    outer loop
      vertex 7.66195 -3.325 -6.3
      vertex 7.95 -4.4 -7.225
      vertex 7.95 -4.4 -6.3
    endloop
  endfacet
  facet normal 0.707107 0.707107 -0
    outer loop
      vertex 4.725 -6.26195 -7.225
      vertex 3.93805 -5.475 -6.3
      vertex 4.725 -6.26195 -6.3
    endloop
  endfacet
  facet normal 0.707107 0.707107 0
    outer loop
      vertex 3.93805 -5.475 -6.3
      vertex 4.725 -6.26195 -7.225
      vertex 3.93805 -5.475 -7.225
    endloop
  endfacet
  facet normal 0.258823 0.965925 -0
    outer loop
      vertex 5.8 -6.55 -7.225
      vertex 4.725 -6.26195 -6.3
      vertex 5.8 -6.55 -6.3
    endloop
  endfacet
  facet normal 0.258823 0.965925 0
    outer loop
      vertex 4.725 -6.26195 -6.3
      vertex 5.8 -6.55 -7.225
      vertex 4.725 -6.26195 -7.225
    endloop
  endfacet
  facet normal 0.965925 0.258823 0
    outer loop
      vertex 3.93805 -5.475 -6.3
      vertex 3.65 -4.4 -7.225
      vertex 3.65 -4.4 -6.3
    endloop
  endfacet
  facet normal 0.965925 0.258823 0
    outer loop
      vertex 3.65 -4.4 -7.225
      vertex 3.93805 -5.475 -6.3
      vertex 3.93805 -5.475 -7.225
    endloop
  endfacet
  facet normal -0.707107 -0.707107 0
    outer loop
      vertex 7.66195 -3.325 -7.225
      vertex 6.875 -2.53805 -6.3
      vertex 6.875 -2.53805 -7.225
    endloop
  endfacet
  facet normal -0.707107 -0.707107 0
    outer loop
      vertex 6.875 -2.53805 -6.3
      vertex 7.66195 -3.325 -7.225
      vertex 7.66195 -3.325 -6.3
    endloop
  endfacet
  facet normal 0.707107 -0.707107 0
    outer loop
      vertex 3.93805 -3.325 -7.225
      vertex 4.725 -2.53805 -6.3
      vertex 3.93805 -3.325 -6.3
    endloop
  endfacet
  facet normal 0.707107 -0.707107 0
    outer loop
      vertex 4.725 -2.53805 -6.3
      vertex 3.93805 -3.325 -7.225
      vertex 4.725 -2.53805 -7.225
    endloop
  endfacet
  facet normal 0.258823 -0.965925 0
    outer loop
      vertex 4.725 -2.53805 -7.225
      vertex 5.8 -2.25 -6.3
      vertex 4.725 -2.53805 -6.3
    endloop
  endfacet
  facet normal 0.258823 -0.965925 0
    outer loop
      vertex 5.8 -2.25 -6.3
      vertex 4.725 -2.53805 -7.225
      vertex 5.8 -2.25 -7.225
    endloop
  endfacet
  facet normal 0.694746 0.186159 -0.694747
    outer loop
      vertex 3.93805 -5.475 -7.225
      vertex 3.06688 -5.8625 -8.2
      vertex 3.65 -4.4 -7.225
    endloop
  endfacet
  facet normal 0.694757 0.186126 -0.694744
    outer loop
      vertex 3.06688 -5.8625 -8.2
      vertex 3.93805 -5.475 -7.225
      vertex 3.09367 -5.9625 -8.2
    endloop
  endfacet
  facet normal -0.186159 -0.694746 -0.694746
    outer loop
      vertex 7.2625 -1.66688 -8.2
      vertex 5.8 -2.25 -7.225
      vertex 5.8 -1.275 -8.2
    endloop
  endfacet
  facet normal -0.694746 0.186159 -0.694746
    outer loop
      vertex 8.925 -4.4 -8.2
      vertex 8.53312 -5.8625 -8.2
      vertex 7.95 -4.4 -7.225
    endloop
  endfacet
  facet normal -0.694746 0.186159 -0.694747
    outer loop
      vertex 8.53312 -5.8625 -8.2
      vertex 7.66195 -5.475 -7.225
      vertex 7.95 -4.4 -7.225
    endloop
  endfacet
  facet normal -0.694757 0.186126 -0.694744
    outer loop
      vertex 7.66195 -5.475 -7.225
      vertex 8.53312 -5.8625 -8.2
      vertex 8.50633 -5.9625 -8.2
    endloop
  endfacet
  facet normal 0.508589 -0.508589 -0.694748
    outer loop
      vertex 3.93805 -3.325 -7.225
      vertex 4.2375 -1.69367 -8.2
      vertex 4.725 -2.53805 -7.225
    endloop
  endfacet
  facet normal 0.508589 -0.508589 -0.694748
    outer loop
      vertex 4.2375 -1.69367 -8.2
      vertex 3.93805 -3.325 -7.225
      vertex 3.09367 -2.8375 -8.2
    endloop
  endfacet
  facet normal 0.186159 -0.694746 -0.694746
    outer loop
      vertex 5.8 -1.275 -8.2
      vertex 5.8 -2.25 -7.225
      vertex 4.3375 -1.66688 -8.2
    endloop
  endfacet
  facet normal 0.186159 0.694746 -0.694746
    outer loop
      vertex 5.8 -6.55 -7.225
      vertex 5.8 -7.525 -8.2
      vertex 4.3375 -7.13312 -8.2
    endloop
  endfacet
  facet normal 0.694746 -0.186159 -0.694746
    outer loop
      vertex 3.06688 -2.9375 -8.2
      vertex 3.65 -4.4 -7.225
      vertex 2.675 -4.4 -8.2
    endloop
  endfacet
  facet normal -0.186126 -0.694757 -0.694744
    outer loop
      vertex 6.875 -2.53805 -7.225
      vertex 7.2625 -1.66688 -8.2
      vertex 7.3625 -1.69367 -8.2
    endloop
  endfacet
  facet normal -0.186159 -0.694746 -0.694747
    outer loop
      vertex 7.2625 -1.66688 -8.2
      vertex 6.875 -2.53805 -7.225
      vertex 5.8 -2.25 -7.225
    endloop
  endfacet
  facet normal -0.186159 0.694746 -0.694746
    outer loop
      vertex 7.2625 -7.13312 -8.2
      vertex 5.8 -7.525 -8.2
      vertex 5.8 -6.55 -7.225
    endloop
  endfacet
  facet normal -0.694757 -0.186126 -0.694744
    outer loop
      vertex 8.53312 -2.9375 -8.2
      vertex 7.66195 -3.325 -7.225
      vertex 8.50633 -2.8375 -8.2
    endloop
  endfacet
  facet normal -0.694746 -0.186159 -0.694747
    outer loop
      vertex 7.66195 -3.325 -7.225
      vertex 8.53312 -2.9375 -8.2
      vertex 7.95 -4.4 -7.225
    endloop
  endfacet
  facet normal -0.694746 -0.186159 -0.694746
    outer loop
      vertex 8.53312 -2.9375 -8.2
      vertex 8.925 -4.4 -8.2
      vertex 7.95 -4.4 -7.225
    endloop
  endfacet
  facet normal 0.694746 0.186159 -0.694746
    outer loop
      vertex 3.65 -4.4 -7.225
      vertex 3.06688 -5.8625 -8.2
      vertex 2.675 -4.4 -8.2
    endloop
  endfacet
  facet normal 0.186159 -0.694746 -0.694747
    outer loop
      vertex 4.725 -2.53805 -7.225
      vertex 4.3375 -1.66688 -8.2
      vertex 5.8 -2.25 -7.225
    endloop
  endfacet
  facet normal 0.186126 -0.694757 -0.694744
    outer loop
      vertex 4.3375 -1.66688 -8.2
      vertex 4.725 -2.53805 -7.225
      vertex 4.2375 -1.69367 -8.2
    endloop
  endfacet
  facet normal -0.508589 -0.508589 -0.694748
    outer loop
      vertex 7.66195 -3.325 -7.225
      vertex 7.3625 -1.69367 -8.2
      vertex 8.50633 -2.8375 -8.2
    endloop
  endfacet
  facet normal -0.508589 -0.508589 -0.694748
    outer loop
      vertex 7.3625 -1.69367 -8.2
      vertex 7.66195 -3.325 -7.225
      vertex 6.875 -2.53805 -7.225
    endloop
  endfacet
  facet normal -0.186126 0.694757 -0.694744
    outer loop
      vertex 7.2625 -7.13312 -8.2
      vertex 6.875 -6.26195 -7.225
      vertex 7.3625 -7.10633 -8.2
    endloop
  endfacet
  facet normal -0.186159 0.694746 -0.694747
    outer loop
      vertex 6.875 -6.26195 -7.225
      vertex 7.2625 -7.13312 -8.2
      vertex 5.8 -6.55 -7.225
    endloop
  endfacet
  facet normal 0.186159 0.694746 -0.694747
    outer loop
      vertex 4.3375 -7.13312 -8.2
      vertex 4.725 -6.26195 -7.225
      vertex 5.8 -6.55 -7.225
    endloop
  endfacet
  facet normal 0.186126 0.694757 -0.694744
    outer loop
      vertex 4.725 -6.26195 -7.225
      vertex 4.3375 -7.13312 -8.2
      vertex 4.2375 -7.10633 -8.2
    endloop
  endfacet
  facet normal 0.694746 -0.186159 -0.694747
    outer loop
      vertex 3.06688 -2.9375 -8.2
      vertex 3.93805 -3.325 -7.225
      vertex 3.65 -4.4 -7.225
    endloop
  endfacet
  facet normal 0.694757 -0.186126 -0.694744
    outer loop
      vertex 3.93805 -3.325 -7.225
      vertex 3.06688 -2.9375 -8.2
      vertex 3.09367 -2.8375 -8.2
    endloop
  endfacet
  facet normal 0.508589 0.508589 -0.694748
    outer loop
      vertex 4.2375 -7.10633 -8.2
      vertex 3.93805 -5.475 -7.225
      vertex 4.725 -6.26195 -7.225
    endloop
  endfacet
  facet normal 0.508589 0.508589 -0.694748
    outer loop
      vertex 3.93805 -5.475 -7.225
      vertex 4.2375 -7.10633 -8.2
      vertex 3.09367 -5.9625 -8.2
    endloop
  endfacet
  facet normal -0.508589 0.508589 -0.694748
    outer loop
      vertex 7.3625 -7.10633 -8.2
      vertex 7.66195 -5.475 -7.225
      vertex 8.50633 -5.9625 -8.2
    endloop
  endfacet
  facet normal -0.508589 0.508589 -0.694748
    outer loop
      vertex 7.66195 -5.475 -7.225
      vertex 7.3625 -7.10633 -8.2
      vertex 6.875 -6.26195 -7.225
    endloop
  endfacet
  facet normal 0.965925 -0.258823 0
    outer loop
      vertex 3.65 -38.6 -6.3
      vertex 3.93805 -37.525 -7.225
      vertex 3.93805 -37.525 -6.3
    endloop
  endfacet
  facet normal 0.965925 -0.258823 0
    outer loop
      vertex 3.93805 -37.525 -7.225
      vertex 3.65 -38.6 -6.3
      vertex 3.65 -38.6 -7.225
    endloop
  endfacet
  facet normal -0.707129 0.707084 0
    outer loop
      vertex 7.66195 -39.675 -7.225
      vertex 6.875 -40.462 -6.3
      vertex 7.66195 -39.675 -6.3
    endloop
  endfacet
  facet normal -0.707129 0.707084 0
    outer loop
      vertex 6.875 -40.462 -6.3
      vertex 7.66195 -39.675 -7.225
      vertex 6.875 -40.462 -7.225
    endloop
  endfacet
  facet normal -0.965925 0.258823 0
    outer loop
      vertex 7.66195 -39.675 -7.225
      vertex 7.95 -38.6 -6.3
      vertex 7.95 -38.6 -7.225
    endloop
  endfacet
  facet normal -0.965925 0.258823 0
    outer loop
      vertex 7.95 -38.6 -6.3
      vertex 7.66195 -39.675 -7.225
      vertex 7.66195 -39.675 -6.3
    endloop
  endfacet
  facet normal -0.258781 0.965936 0
    outer loop
      vertex 6.875 -40.462 -7.225
      vertex 5.8 -40.75 -6.3
      vertex 6.875 -40.462 -6.3
    endloop
  endfacet
  facet normal -0.258781 0.965936 0
    outer loop
      vertex 5.8 -40.75 -6.3
      vertex 6.875 -40.462 -7.225
      vertex 5.8 -40.75 -7.225
    endloop
  endfacet
  facet normal -0.258781 -0.965936 0
    outer loop
      vertex 5.8 -36.45 -7.225
      vertex 6.875 -36.738 -6.3
      vertex 5.8 -36.45 -6.3
    endloop
  endfacet
  facet normal -0.258781 -0.965936 -0
    outer loop
      vertex 6.875 -36.738 -6.3
      vertex 5.8 -36.45 -7.225
      vertex 6.875 -36.738 -7.225
    endloop
  endfacet
  facet normal -0.965925 -0.258823 0
    outer loop
      vertex 7.95 -38.6 -7.225
      vertex 7.66195 -37.525 -6.3
      vertex 7.66195 -37.525 -7.225
    endloop
  endfacet
  facet normal -0.965925 -0.258823 0
    outer loop
      vertex 7.66195 -37.525 -6.3
      vertex 7.95 -38.6 -7.225
      vertex 7.95 -38.6 -6.3
    endloop
  endfacet
  facet normal 0.707129 0.707084 -0
    outer loop
      vertex 4.725 -40.462 -7.225
      vertex 3.93805 -39.675 -6.3
      vertex 4.725 -40.462 -6.3
    endloop
  endfacet
  facet normal 0.707129 0.707084 0
    outer loop
      vertex 3.93805 -39.675 -6.3
      vertex 4.725 -40.462 -7.225
      vertex 3.93805 -39.675 -7.225
    endloop
  endfacet
  facet normal 0.258781 0.965936 -0
    outer loop
      vertex 5.8 -40.75 -7.225
      vertex 4.725 -40.462 -6.3
      vertex 5.8 -40.75 -6.3
    endloop
  endfacet
  facet normal 0.258781 0.965936 0
    outer loop
      vertex 4.725 -40.462 -6.3
      vertex 5.8 -40.75 -7.225
      vertex 4.725 -40.462 -7.225
    endloop
  endfacet
  facet normal 0.965925 0.258823 0
    outer loop
      vertex 3.93805 -39.675 -6.3
      vertex 3.65 -38.6 -7.225
      vertex 3.65 -38.6 -6.3
    endloop
  endfacet
  facet normal 0.965925 0.258823 0
    outer loop
      vertex 3.65 -38.6 -7.225
      vertex 3.93805 -39.675 -6.3
      vertex 3.93805 -39.675 -7.225
    endloop
  endfacet
  facet normal -0.707129 -0.707084 0
    outer loop
      vertex 7.66195 -37.525 -7.225
      vertex 6.875 -36.738 -6.3
      vertex 6.875 -36.738 -7.225
    endloop
  endfacet
  facet normal -0.707129 -0.707084 0
    outer loop
      vertex 6.875 -36.738 -6.3
      vertex 7.66195 -37.525 -7.225
      vertex 7.66195 -37.525 -6.3
    endloop
  endfacet
  facet normal 0.707129 -0.707084 0
    outer loop
      vertex 3.93805 -37.525 -6.3
      vertex 4.725 -36.738 -7.225
      vertex 4.725 -36.738 -6.3
    endloop
  endfacet
  facet normal 0.707129 -0.707084 0
    outer loop
      vertex 4.725 -36.738 -7.225
      vertex 3.93805 -37.525 -6.3
      vertex 3.93805 -37.525 -7.225
    endloop
  endfacet
  facet normal 0.258781 -0.965936 0
    outer loop
      vertex 4.725 -36.738 -7.225
      vertex 5.8 -36.45 -6.3
      vertex 4.725 -36.738 -6.3
    endloop
  endfacet
  facet normal 0.258781 -0.965936 0
    outer loop
      vertex 5.8 -36.45 -6.3
      vertex 4.725 -36.738 -7.225
      vertex 5.8 -36.45 -7.225
    endloop
  endfacet
  facet normal 0.694746 0.186159 -0.694747
    outer loop
      vertex 3.93805 -39.675 -7.225
      vertex 3.06688 -40.0625 -8.2
      vertex 3.65 -38.6 -7.225
    endloop
  endfacet
  facet normal 0.694757 0.186126 -0.694744
    outer loop
      vertex 3.06688 -40.0625 -8.2
      vertex 3.93805 -39.675 -7.225
      vertex 3.09367 -40.1625 -8.2
    endloop
  endfacet
  facet normal -0.186168 -0.694745 -0.694745
    outer loop
      vertex 7.2625 -35.8669 -8.2
      vertex 5.8 -36.45 -7.225
      vertex 5.8 -35.475 -8.2
    endloop
  endfacet
  facet normal -0.694746 0.186159 -0.694746
    outer loop
      vertex 8.925 -38.6 -8.2
      vertex 8.53312 -40.0625 -8.2
      vertex 7.95 -38.6 -7.225
    endloop
  endfacet
  facet normal -0.694746 0.186159 -0.694747
    outer loop
      vertex 8.53312 -40.0625 -8.2
      vertex 7.66195 -39.675 -7.225
      vertex 7.95 -38.6 -7.225
    endloop
  endfacet
  facet normal -0.694757 0.186126 -0.694744
    outer loop
      vertex 7.66195 -39.675 -7.225
      vertex 8.53312 -40.0625 -8.2
      vertex 8.50633 -40.1625 -8.2
    endloop
  endfacet
  facet normal 0.508622 -0.50859 -0.694723
    outer loop
      vertex 3.93805 -37.525 -7.225
      vertex 4.2375 -35.8937 -8.2
      vertex 4.725 -36.738 -7.225
    endloop
  endfacet
  facet normal 0.508583 -0.508596 -0.694747
    outer loop
      vertex 4.2375 -35.8937 -8.2
      vertex 3.93805 -37.525 -7.225
      vertex 3.09367 -37.0375 -8.2
    endloop
  endfacet
  facet normal 0.186168 -0.694745 -0.694745
    outer loop
      vertex 5.8 -35.475 -8.2
      vertex 5.8 -36.45 -7.225
      vertex 4.3375 -35.8669 -8.2
    endloop
  endfacet
  facet normal 0.186168 0.694745 -0.694745
    outer loop
      vertex 5.8 -40.75 -7.225
      vertex 5.8 -41.725 -8.2
      vertex 4.3375 -41.3331 -8.2
    endloop
  endfacet
  facet normal 0.694746 -0.186159 -0.694746
    outer loop
      vertex 3.06688 -37.1375 -8.2
      vertex 3.65 -38.6 -7.225
      vertex 2.675 -38.6 -8.2
    endloop
  endfacet
  facet normal -0.186136 -0.69478 -0.694719
    outer loop
      vertex 7.2625 -35.8669 -8.2
      vertex 6.875 -36.738 -7.225
      vertex 5.8 -36.45 -7.225
    endloop
  endfacet
  facet normal -0.186195 -0.694759 -0.694724
    outer loop
      vertex 6.875 -36.738 -7.225
      vertex 7.2625 -35.8669 -8.2
      vertex 7.3625 -35.8937 -8.2
    endloop
  endfacet
  facet normal -0.186168 0.694745 -0.694745
    outer loop
      vertex 7.2625 -41.3331 -8.2
      vertex 5.8 -41.725 -8.2
      vertex 5.8 -40.75 -7.225
    endloop
  endfacet
  facet normal -0.694757 -0.186126 -0.694744
    outer loop
      vertex 8.53312 -37.1375 -8.2
      vertex 7.66195 -37.525 -7.225
      vertex 8.50633 -37.0375 -8.2
    endloop
  endfacet
  facet normal -0.694746 -0.186159 -0.694747
    outer loop
      vertex 7.66195 -37.525 -7.225
      vertex 8.53312 -37.1375 -8.2
      vertex 7.95 -38.6 -7.225
    endloop
  endfacet
  facet normal -0.694746 -0.186159 -0.694746
    outer loop
      vertex 8.53312 -37.1375 -8.2
      vertex 8.925 -38.6 -8.2
      vertex 7.95 -38.6 -7.225
    endloop
  endfacet
  facet normal 0.694746 0.186159 -0.694746
    outer loop
      vertex 3.65 -38.6 -7.225
      vertex 3.06688 -40.0625 -8.2
      vertex 2.675 -38.6 -8.2
    endloop
  endfacet
  facet normal 0.186195 -0.694759 -0.694724
    outer loop
      vertex 4.3375 -35.8669 -8.2
      vertex 4.725 -36.738 -7.225
      vertex 4.2375 -35.8937 -8.2
    endloop
  endfacet
  facet normal 0.186136 -0.69478 -0.694719
    outer loop
      vertex 4.725 -36.738 -7.225
      vertex 4.3375 -35.8669 -8.2
      vertex 5.8 -36.45 -7.225
    endloop
  endfacet
  facet normal -0.508583 -0.508596 -0.694747
    outer loop
      vertex 7.66195 -37.525 -7.225
      vertex 7.3625 -35.8937 -8.2
      vertex 8.50633 -37.0375 -8.2
    endloop
  endfacet
  facet normal -0.508622 -0.50859 -0.694723
    outer loop
      vertex 7.3625 -35.8937 -8.2
      vertex 7.66195 -37.525 -7.225
      vertex 6.875 -36.738 -7.225
    endloop
  endfacet
  facet normal -0.186195 0.694759 -0.694724
    outer loop
      vertex 7.2625 -41.3331 -8.2
      vertex 6.875 -40.462 -7.225
      vertex 7.3625 -41.3063 -8.2
    endloop
  endfacet
  facet normal -0.186136 0.69478 -0.694719
    outer loop
      vertex 6.875 -40.462 -7.225
      vertex 7.2625 -41.3331 -8.2
      vertex 5.8 -40.75 -7.225
    endloop
  endfacet
  facet normal 0.186136 0.69478 -0.694719
    outer loop
      vertex 4.3375 -41.3331 -8.2
      vertex 4.725 -40.462 -7.225
      vertex 5.8 -40.75 -7.225
    endloop
  endfacet
  facet normal 0.186195 0.694759 -0.694724
    outer loop
      vertex 4.725 -40.462 -7.225
      vertex 4.3375 -41.3331 -8.2
      vertex 4.2375 -41.3063 -8.2
    endloop
  endfacet
  facet normal 0.694746 -0.186159 -0.694747
    outer loop
      vertex 3.06688 -37.1375 -8.2
      vertex 3.93805 -37.525 -7.225
      vertex 3.65 -38.6 -7.225
    endloop
  endfacet
  facet normal 0.694757 -0.186126 -0.694744
    outer loop
      vertex 3.93805 -37.525 -7.225
      vertex 3.06688 -37.1375 -8.2
      vertex 3.09367 -37.0375 -8.2
    endloop
  endfacet
  facet normal 0.508622 0.50859 -0.694723
    outer loop
      vertex 4.2375 -41.3063 -8.2
      vertex 3.93805 -39.675 -7.225
      vertex 4.725 -40.462 -7.225
    endloop
  endfacet
  facet normal 0.508583 0.508596 -0.694747
    outer loop
      vertex 3.93805 -39.675 -7.225
      vertex 4.2375 -41.3063 -8.2
      vertex 3.09367 -40.1625 -8.2
    endloop
  endfacet
  facet normal -0.508583 0.508596 -0.694747
    outer loop
      vertex 7.3625 -41.3063 -8.2
      vertex 7.66195 -39.675 -7.225
      vertex 8.50633 -40.1625 -8.2
    endloop
  endfacet
  facet normal -0.508622 0.50859 -0.694723
    outer loop
      vertex 7.66195 -39.675 -7.225
      vertex 7.3625 -41.3063 -8.2
      vertex 6.875 -40.462 -7.225
    endloop
  endfacet
  facet normal -1 0 0
    outer loop
      vertex 10.4 -8.75 -7.6
      vertex 10.4 -23.7 -1.3
      vertex 10.4 -8.75 -6.3
    endloop
  endfacet
  facet normal -1 0 0
    outer loop
      vertex 10.4 -34.25 -7.6
      vertex 10.4 -23.7 -1.3
      vertex 10.4 -8.75 -7.6
    endloop
  endfacet
  facet normal -1 0 0
    outer loop
      vertex 10.4 -34.25 -6.3
      vertex 10.4 -23.7 -1.3
      vertex 10.4 -34.25 -7.6
    endloop
  endfacet
  facet normal -1 -0 0
    outer loop
      vertex 10.4 -23.7 -1.3
      vertex 10.4 -34.25 -6.3
      vertex 10.4 -31.7 -1.3
    endloop
  endfacet
  facet normal -1 0 0
    outer loop
      vertex 10.4 -41.8 0
      vertex 10.4 -31.7 -1.3
      vertex 10.4 -34.25 -6.3
    endloop
  endfacet
  facet normal -1 0 0
    outer loop
      vertex 10.4 -41.8 0
      vertex 10.4 -34.25 -6.3
      vertex 10.4 -41.8 -6.3
    endloop
  endfacet
  facet normal -1 0 0
    outer loop
      vertex 10.4 -31.7 -1.3
      vertex 10.4 -41.8 0
      vertex 10.4 -31.7 0
    endloop
  endfacet
  facet normal -1 0 0
    outer loop
      vertex 10.4 -8.75 -6.3
      vertex 10.4 -1.2 0
      vertex 10.4 -1.2 -6.3
    endloop
  endfacet
  facet normal -1 0 0
    outer loop
      vertex 10.4 -23.7 0
      vertex 10.4 -8.75 -6.3
      vertex 10.4 -23.7 -1.3
    endloop
  endfacet
  facet normal -1 0 0
    outer loop
      vertex 10.4 -8.75 -6.3
      vertex 10.4 -23.7 0
      vertex 10.4 -1.2 0
    endloop
  endfacet
  facet normal 0 0 1
    outer loop
      vertex 10.4 -8.75 -7.6
      vertex 9.39 -10 -7.6
      vertex 10.4 -34.25 -7.6
    endloop
  endfacet
  facet normal 0 0 1
    outer loop
      vertex 10.4 -8.75 -7.6
      vertex 2.21 -10 -7.6
      vertex 9.39 -10 -7.6
    endloop
  endfacet
  facet normal 0 0 1
    outer loop
      vertex 2.21 -10 -7.6
      vertex 1.2 -8.75 -7.6
      vertex 2.21 -33 -7.6
    endloop
  endfacet
  facet normal -0 0 1
    outer loop
      vertex 1.2 -8.75 -7.6
      vertex 2.21 -10 -7.6
      vertex 10.4 -8.75 -7.6
    endloop
  endfacet
  facet normal -0 0 1
    outer loop
      vertex 9.39 -33 -7.6
      vertex 10.4 -34.25 -7.6
      vertex 9.39 -10 -7.6
    endloop
  endfacet
  facet normal -0 0 1
    outer loop
      vertex 2.21 -33 -7.6
      vertex 10.4 -34.25 -7.6
      vertex 9.39 -33 -7.6
    endloop
  endfacet
  facet normal 0 0 1
    outer loop
      vertex 2.21 -33 -7.6
      vertex 1.2 -34.25 -7.6
      vertex 10.4 -34.25 -7.6
    endloop
  endfacet
  facet normal 0 0 1
    outer loop
      vertex 1.2 -34.25 -7.6
      vertex 2.21 -33 -7.6
      vertex 1.2 -8.75 -7.6
    endloop
  endfacet
  facet normal 1 -0 0
    outer loop
      vertex 1.2 -41.8 0
      vertex 1.2 -31.7 -1.3
      vertex 1.2 -31.7 0
    endloop
  endfacet
  facet normal 1 0 0
    outer loop
      vertex 1.2 -31.7 -1.3
      vertex 1.2 -41.8 0
      vertex 1.2 -34.25 -6.3
    endloop
  endfacet
  facet normal 1 0 0
    outer loop
      vertex 1.2 -34.25 -6.3
      vertex 1.2 -41.8 0
      vertex 1.2 -41.8 -6.3
    endloop
  endfacet
  facet normal 1 0 0
    outer loop
      vertex 1.2 -1.2 0
      vertex 1.2 -8.75 -6.3
      vertex 1.2 -1.2 -6.3
    endloop
  endfacet
  facet normal 1 -0 0
    outer loop
      vertex 1.2 -23.7 0
      vertex 1.2 -8.75 -6.3
      vertex 1.2 -1.2 0
    endloop
  endfacet
  facet normal 1 -0 0
    outer loop
      vertex 1.2 -23.7 -1.3
      vertex 1.2 -8.75 -6.3
      vertex 1.2 -23.7 0
    endloop
  endfacet
  facet normal 1 0 0
    outer loop
      vertex 1.2 -8.75 -6.3
      vertex 1.2 -23.7 -1.3
      vertex 1.2 -8.75 -7.6
    endloop
  endfacet
  facet normal 1 0 0
    outer loop
      vertex 1.2 -34.25 -6.3
      vertex 1.2 -23.7 -1.3
      vertex 1.2 -31.7 -1.3
    endloop
  endfacet
  facet normal 1 0 0
    outer loop
      vertex 1.2 -23.7 -1.3
      vertex 1.2 -34.25 -6.3
      vertex 1.2 -34.25 -7.6
    endloop
  endfacet
  facet normal 1 0 0
    outer loop
      vertex 1.2 -23.7 -1.3
      vertex 1.2 -34.25 -7.6
      vertex 1.2 -8.75 -7.6
    endloop
  endfacet
  facet normal 0 1 -0
    outer loop
      vertex 10.4 -34.25 -7.6
      vertex 1.2 -34.25 -6.3
      vertex 10.4 -34.25 -6.3
    endloop
  endfacet
  facet normal 0 1 0
    outer loop
      vertex 1.2 -34.25 -6.3
      vertex 10.4 -34.25 -7.6
      vertex 1.2 -34.25 -7.6
    endloop
  endfacet
  facet normal 0 -1 0
    outer loop
      vertex 1.2 -8.75 -7.6
      vertex 10.4 -8.75 -6.3
      vertex 1.2 -8.75 -6.3
    endloop
  endfacet
  facet normal 0 -1 -0
    outer loop
      vertex 10.4 -8.75 -6.3
      vertex 1.2 -8.75 -7.6
      vertex 10.4 -8.75 -7.6
    endloop
  endfacet
  facet normal -1 0 0
    outer loop
      vertex 9.39 -33 -8.2
      vertex 9.39 -10 -7.6
      vertex 9.39 -10 -8.2
    endloop
  endfacet
  facet normal -1 -0 0
    outer loop
      vertex 9.39 -10 -7.6
      vertex 9.39 -33 -8.2
      vertex 9.39 -33 -7.6
    endloop
  endfacet
  facet normal 1 -0 0
    outer loop
      vertex 2.21 -33 -7.6
      vertex 2.21 -10 -8.2
      vertex 2.21 -10 -7.6
    endloop
  endfacet
  facet normal 1 0 0
    outer loop
      vertex 2.21 -10 -8.2
      vertex 2.21 -33 -7.6
      vertex 2.21 -33 -8.2
    endloop
  endfacet
  facet normal 0 1 -0
    outer loop
      vertex 9.39 -33 -8.2
      vertex 2.21 -33 -7.6
      vertex 9.39 -33 -7.6
    endloop
  endfacet
  facet normal 0 1 0
    outer loop
      vertex 2.21 -33 -7.6
      vertex 9.39 -33 -8.2
      vertex 2.21 -33 -8.2
    endloop
  endfacet
  facet normal 0 -1 0
    outer loop
      vertex 2.21 -10 -8.2
      vertex 9.39 -10 -7.6
      vertex 2.21 -10 -7.6
    endloop
  endfacet
  facet normal 0 -1 -0
    outer loop
      vertex 9.39 -10 -7.6
      vertex 2.21 -10 -8.2
      vertex 9.39 -10 -8.2
    endloop
  endfacet
  facet normal 0 0 1
    outer loop
      vertex 10.4 -34.25 -6.3
      vertex 7.95 -38.6 -6.3
      vertex 10.4 -41.8 -6.3
    endloop
  endfacet
  facet normal 0 0 1
    outer loop
      vertex 10.4 -34.25 -6.3
      vertex 7.66195 -37.525 -6.3
      vertex 7.95 -38.6 -6.3
    endloop
  endfacet
  facet normal 0 0 1
    outer loop
      vertex 10.4 -34.25 -6.3
      vertex 6.875 -36.738 -6.3
      vertex 7.66195 -37.525 -6.3
    endloop
  endfacet
  facet normal 0 0 1
    outer loop
      vertex 10.4 -34.25 -6.3
      vertex 5.8 -36.45 -6.3
      vertex 6.875 -36.738 -6.3
    endloop
  endfacet
  facet normal -0 0 1
    outer loop
      vertex 1.2 -34.25 -6.3
      vertex 5.8 -36.45 -6.3
      vertex 10.4 -34.25 -6.3
    endloop
  endfacet
  facet normal 0 0 1
    outer loop
      vertex 3.93805 -37.525 -6.3
      vertex 1.2 -34.25 -6.3
      vertex 3.65 -38.6 -6.3
    endloop
  endfacet
  facet normal 0 0 1
    outer loop
      vertex 4.725 -36.738 -6.3
      vertex 1.2 -34.25 -6.3
      vertex 3.93805 -37.525 -6.3
    endloop
  endfacet
  facet normal 0 0 1
    outer loop
      vertex 5.8 -36.45 -6.3
      vertex 1.2 -34.25 -6.3
      vertex 4.725 -36.738 -6.3
    endloop
  endfacet
  facet normal -0 0 1
    outer loop
      vertex 7.66195 -39.675 -6.3
      vertex 10.4 -41.8 -6.3
      vertex 7.95 -38.6 -6.3
    endloop
  endfacet
  facet normal -0 0 1
    outer loop
      vertex 6.875 -40.462 -6.3
      vertex 10.4 -41.8 -6.3
      vertex 7.66195 -39.675 -6.3
    endloop
  endfacet
  facet normal -0 0 1
    outer loop
      vertex 5.8 -40.75 -6.3
      vertex 10.4 -41.8 -6.3
      vertex 6.875 -40.462 -6.3
    endloop
  endfacet
  facet normal 0 0 1
    outer loop
      vertex 1.2 -41.8 -6.3
      vertex 3.65 -38.6 -6.3
      vertex 1.2 -34.25 -6.3
    endloop
  endfacet
  facet normal 0 0 1
    outer loop
      vertex 5.8 -40.75 -6.3
      vertex 1.2 -41.8 -6.3
      vertex 10.4 -41.8 -6.3
    endloop
  endfacet
  facet normal 0 0 1
    outer loop
      vertex 4.725 -40.462 -6.3
      vertex 1.2 -41.8 -6.3
      vertex 5.8 -40.75 -6.3
    endloop
  endfacet
  facet normal 0 0 1
    outer loop
      vertex 3.93805 -39.675 -6.3
      vertex 1.2 -41.8 -6.3
      vertex 4.725 -40.462 -6.3
    endloop
  endfacet
  facet normal 0 0 1
    outer loop
      vertex 3.65 -38.6 -6.3
      vertex 1.2 -41.8 -6.3
      vertex 3.93805 -39.675 -6.3
    endloop
  endfacet
  facet normal 0 0 1
    outer loop
      vertex 10.4 -1.2 -6.3
      vertex 7.95 -4.4 -6.3
      vertex 10.4 -8.75 -6.3
    endloop
  endfacet
  facet normal 0 0 1
    outer loop
      vertex 10.4 -1.2 -6.3
      vertex 7.66195 -3.325 -6.3
      vertex 7.95 -4.4 -6.3
    endloop
  endfacet
  facet normal 0 0 1
    outer loop
      vertex 10.4 -1.2 -6.3
      vertex 6.875 -2.53805 -6.3
      vertex 7.66195 -3.325 -6.3
    endloop
  endfacet
  facet normal 0 0 1
    outer loop
      vertex 10.4 -1.2 -6.3
      vertex 5.8 -2.25 -6.3
      vertex 6.875 -2.53805 -6.3
    endloop
  endfacet
  facet normal 0 0 1
    outer loop
      vertex 3.93805 -3.325 -6.3
      vertex 1.2 -1.2 -6.3
      vertex 3.65 -4.4 -6.3
    endloop
  endfacet
  facet normal 0 0 1
    outer loop
      vertex 4.725 -2.53805 -6.3
      vertex 1.2 -1.2 -6.3
      vertex 3.93805 -3.325 -6.3
    endloop
  endfacet
  facet normal 0 0 1
    outer loop
      vertex 5.8 -2.25 -6.3
      vertex 1.2 -1.2 -6.3
      vertex 4.725 -2.53805 -6.3
    endloop
  endfacet
  facet normal -0 0 1
    outer loop
      vertex 1.2 -1.2 -6.3
      vertex 5.8 -2.25 -6.3
      vertex 10.4 -1.2 -6.3
    endloop
  endfacet
  facet normal -0 0 1
    outer loop
      vertex 7.66195 -5.475 -6.3
      vertex 10.4 -8.75 -6.3
      vertex 7.95 -4.4 -6.3
    endloop
  endfacet
  facet normal -0 0 1
    outer loop
      vertex 6.875 -6.26195 -6.3
      vertex 10.4 -8.75 -6.3
      vertex 7.66195 -5.475 -6.3
    endloop
  endfacet
  facet normal -0 0 1
    outer loop
      vertex 5.8 -6.55 -6.3
      vertex 10.4 -8.75 -6.3
      vertex 6.875 -6.26195 -6.3
    endloop
  endfacet
  facet normal 0 0 1
    outer loop
      vertex 1.2 -8.75 -6.3
      vertex 5.8 -6.55 -6.3
      vertex 4.725 -6.26195 -6.3
    endloop
  endfacet
  facet normal 0 0 1
    outer loop
      vertex 1.2 -8.75 -6.3
      vertex 3.65 -4.4 -6.3
      vertex 1.2 -1.2 -6.3
    endloop
  endfacet
  facet normal 0 0 1
    outer loop
      vertex 5.8 -6.55 -6.3
      vertex 1.2 -8.75 -6.3
      vertex 10.4 -8.75 -6.3
    endloop
  endfacet
  facet normal 0 0 1
    outer loop
      vertex 3.93805 -5.475 -6.3
      vertex 1.2 -8.75 -6.3
      vertex 4.725 -6.26195 -6.3
    endloop
  endfacet
  facet normal 0 0 1
    outer loop
      vertex 3.65 -4.4 -6.3
      vertex 1.2 -8.75 -6.3
      vertex 3.93805 -5.475 -6.3
    endloop
  endfacet
  facet normal 0 1 -0
    outer loop
      vertex 10.4 -41.8 -6.3
      vertex 1.2 -41.8 0
      vertex 10.4 -41.8 0
    endloop
  endfacet
  facet normal 0 1 0
    outer loop
      vertex 1.2 -41.8 0
      vertex 10.4 -41.8 -6.3
      vertex 1.2 -41.8 -6.3
    endloop
  endfacet
  facet normal 0 -1 0
    outer loop
      vertex 1.2 -1.2 -6.3
      vertex 10.4 -1.2 0
      vertex 1.2 -1.2 0
    endloop
  endfacet
  facet normal 0 -1 -0
    outer loop
      vertex 10.4 -1.2 0
      vertex 1.2 -1.2 -6.3
      vertex 10.4 -1.2 -6.3
    endloop
  endfacet
  facet normal -0 0 1
    outer loop
      vertex 0 -23.7 -1.3
      vertex 1.2 -31.7 -1.3
      vertex 1.2 -23.7 -1.3
    endloop
  endfacet
  facet normal 0 0 1
    outer loop
      vertex 1.2 -31.7 -1.3
      vertex 0 -23.7 -1.3
      vertex 0 -31.7 -1.3
    endloop
  endfacet
  facet normal -0 0 1
    outer loop
      vertex 10.4 -23.7 -1.3
      vertex 11.6 -31.7 -1.3
      vertex 11.6 -23.7 -1.3
    endloop
  endfacet
  facet normal 0 0 1
    outer loop
      vertex 11.6 -31.7 -1.3
      vertex 10.4 -23.7 -1.3
      vertex 10.4 -31.7 -1.3
    endloop
  endfacet
  facet normal 0 1 -0
    outer loop
      vertex 1.2 -31.7 -1.3
      vertex 0 -31.7 0
      vertex 1.2 -31.7 0
    endloop
  endfacet
  facet normal 0 1 0
    outer loop
      vertex 0 -31.7 0
      vertex 1.2 -31.7 -1.3
      vertex 0 -31.7 -1.3
    endloop
  endfacet
  facet normal 0 1 -0
    outer loop
      vertex 11.6 -31.7 -1.3
      vertex 10.4 -31.7 0
      vertex 11.6 -31.7 0
    endloop
  endfacet
  facet normal 0 1 0
    outer loop
      vertex 10.4 -31.7 0
      vertex 11.6 -31.7 -1.3
      vertex 10.4 -31.7 -1.3
    endloop
  endfacet
  facet normal 0 -1 0
    outer loop
      vertex 0 -23.7 -1.3
      vertex 1.2 -23.7 0
      vertex 0 -23.7 0
    endloop
  endfacet
  facet normal 0 -1 -0
    outer loop
      vertex 1.2 -23.7 0
      vertex 0 -23.7 -1.3
      vertex 1.2 -23.7 -1.3
    endloop
  endfacet
  facet normal 0 -1 0
    outer loop
      vertex 10.4 -23.7 -1.3
      vertex 11.6 -23.7 0
      vertex 10.4 -23.7 0
    endloop
  endfacet
  facet normal 0 -1 -0
    outer loop
      vertex 11.6 -23.7 0
      vertex 10.4 -23.7 -1.3
      vertex 11.6 -23.7 -1.3
    endloop
  endfacet
  facet normal 1 0 0
    outer loop
      vertex 11.6 -31.7 0
      vertex 11.6 -43 0
      vertex 11.6 -31.7 -1.3
    endloop
  endfacet
  facet normal 1 0 0
    outer loop
      vertex 11.6 -23.7 -1.3
      vertex 11.6 0 0
      vertex 11.6 -23.7 0
    endloop
  endfacet
  facet normal 1 0 0
    outer loop
      vertex 11.6 0 0
      vertex 11.6 -23.7 -1.3
      vertex 11.6 0 -8.2
    endloop
  endfacet
  facet normal 1 0 0
    outer loop
      vertex 11.6 -43 -8.2
      vertex 11.6 -23.7 -1.3
      vertex 11.6 -31.7 -1.3
    endloop
  endfacet
  facet normal 1 0 0
    outer loop
      vertex 11.6 -43 -8.2
      vertex 11.6 -31.7 -1.3
      vertex 11.6 -43 0
    endloop
  endfacet
  facet normal 1 0 0
    outer loop
      vertex 11.6 -23.7 -1.3
      vertex 11.6 -43 -8.2
      vertex 11.6 0 -8.2
    endloop
  endfacet
  facet normal 0 0 -1
    outer loop
      vertex 9.39 -10 -8.2
      vertex 8.53312 -5.8625 -8.2
      vertex 8.925 -4.4 -8.2
    endloop
  endfacet
  facet normal 0 0 -1
    outer loop
      vertex 9.39 -10 -8.2
      vertex 8.50633 -5.9625 -8.2
      vertex 8.53312 -5.8625 -8.2
    endloop
  endfacet
  facet normal 0 0 -1
    outer loop
      vertex 9.39 -10 -8.2
      vertex 7.3625 -7.10633 -8.2
      vertex 8.50633 -5.9625 -8.2
    endloop
  endfacet
  facet normal 0 0 -1
    outer loop
      vertex 9.39 -10 -8.2
      vertex 7.2625 -7.13312 -8.2
      vertex 7.3625 -7.10633 -8.2
    endloop
  endfacet
  facet normal 0 0 -1
    outer loop
      vertex 9.39 -10 -8.2
      vertex 5.8 -7.525 -8.2
      vertex 7.2625 -7.13312 -8.2
    endloop
  endfacet
  facet normal 0 0 -1
    outer loop
      vertex 2.21 -10 -8.2
      vertex 5.8 -7.525 -8.2
      vertex 9.39 -10 -8.2
    endloop
  endfacet
  facet normal -0 0 -1
    outer loop
      vertex 5.8 -7.525 -8.2
      vertex 2.21 -10 -8.2
      vertex 4.3375 -7.13312 -8.2
    endloop
  endfacet
  facet normal -0 0 -1
    outer loop
      vertex 3.06688 -5.8625 -8.2
      vertex 2.21 -10 -8.2
      vertex 2.675 -4.4 -8.2
    endloop
  endfacet
  facet normal -0 0 -1
    outer loop
      vertex 3.09367 -5.9625 -8.2
      vertex 2.21 -10 -8.2
      vertex 3.06688 -5.8625 -8.2
    endloop
  endfacet
  facet normal -0 0 -1
    outer loop
      vertex 4.2375 -7.10633 -8.2
      vertex 2.21 -10 -8.2
      vertex 3.09367 -5.9625 -8.2
    endloop
  endfacet
  facet normal -0 0 -1
    outer loop
      vertex 4.3375 -7.13312 -8.2
      vertex 2.21 -10 -8.2
      vertex 4.2375 -7.10633 -8.2
    endloop
  endfacet
  facet normal 0 0 -1
    outer loop
      vertex 11.6 -43 -8.2
      vertex 9.39 -33 -8.2
      vertex 11.6 0 -8.2
    endloop
  endfacet
  facet normal 0 0 -1
    outer loop
      vertex 11.6 -43 -8.2
      vertex 8.925 -38.6 -8.2
      vertex 9.39 -33 -8.2
    endloop
  endfacet
  facet normal 0 0 -1
    outer loop
      vertex 11.6 -43 -8.2
      vertex 8.53312 -40.0625 -8.2
      vertex 8.925 -38.6 -8.2
    endloop
  endfacet
  facet normal 0 0 -1
    outer loop
      vertex 11.6 -43 -8.2
      vertex 8.50633 -40.1625 -8.2
      vertex 8.53312 -40.0625 -8.2
    endloop
  endfacet
  facet normal 0 0 -1
    outer loop
      vertex 11.6 -43 -8.2
      vertex 7.3625 -41.3063 -8.2
      vertex 8.50633 -40.1625 -8.2
    endloop
  endfacet
  facet normal 0 0 -1
    outer loop
      vertex 11.6 -43 -8.2
      vertex 7.2625 -41.3331 -8.2
      vertex 7.3625 -41.3063 -8.2
    endloop
  endfacet
  facet normal 0 0 -1
    outer loop
      vertex 11.6 -43 -8.2
      vertex 5.8 -41.725 -8.2
      vertex 7.2625 -41.3331 -8.2
    endloop
  endfacet
  facet normal 0 0 -1
    outer loop
      vertex 0 -43 -8.2
      vertex 4.3375 -41.3331 -8.2
      vertex 5.8 -41.725 -8.2
    endloop
  endfacet
  facet normal -0 0 -1
    outer loop
      vertex 2.21 -33 -8.2
      vertex 0 -43 -8.2
      vertex 2.21 -10 -8.2
    endloop
  endfacet
  facet normal -0 0 -1
    outer loop
      vertex 2.675 -38.6 -8.2
      vertex 0 -43 -8.2
      vertex 2.21 -33 -8.2
    endloop
  endfacet
  facet normal -0 0 -1
    outer loop
      vertex 3.06688 -40.0625 -8.2
      vertex 0 -43 -8.2
      vertex 2.675 -38.6 -8.2
    endloop
  endfacet
  facet normal -0 0 -1
    outer loop
      vertex 3.09367 -40.1625 -8.2
      vertex 0 -43 -8.2
      vertex 3.06688 -40.0625 -8.2
    endloop
  endfacet
  facet normal -0 0 -1
    outer loop
      vertex 4.2375 -41.3063 -8.2
      vertex 0 -43 -8.2
      vertex 3.09367 -40.1625 -8.2
    endloop
  endfacet
  facet normal -0 0 -1
    outer loop
      vertex 4.3375 -41.3331 -8.2
      vertex 0 -43 -8.2
      vertex 4.2375 -41.3063 -8.2
    endloop
  endfacet
  facet normal 0 0 -1
    outer loop
      vertex 0 -43 -8.2
      vertex 5.8 -41.725 -8.2
      vertex 11.6 -43 -8.2
    endloop
  endfacet
  facet normal 0 0 -1
    outer loop
      vertex 9.39 -10 -8.2
      vertex 11.6 0 -8.2
      vertex 9.39 -33 -8.2
    endloop
  endfacet
  facet normal 0 0 -1
    outer loop
      vertex 8.925 -4.4 -8.2
      vertex 11.6 0 -8.2
      vertex 9.39 -10 -8.2
    endloop
  endfacet
  facet normal 0 0 -1
    outer loop
      vertex 8.53312 -2.9375 -8.2
      vertex 11.6 0 -8.2
      vertex 8.925 -4.4 -8.2
    endloop
  endfacet
  facet normal 0 0 -1
    outer loop
      vertex 8.50633 -2.8375 -8.2
      vertex 11.6 0 -8.2
      vertex 8.53312 -2.9375 -8.2
    endloop
  endfacet
  facet normal 0 0 -1
    outer loop
      vertex 7.3625 -1.69367 -8.2
      vertex 11.6 0 -8.2
      vertex 8.50633 -2.8375 -8.2
    endloop
  endfacet
  facet normal 0 0 -1
    outer loop
      vertex 7.2625 -1.66688 -8.2
      vertex 11.6 0 -8.2
      vertex 7.3625 -1.69367 -8.2
    endloop
  endfacet
  facet normal 0 0 -1
    outer loop
      vertex 5.8 -1.275 -8.2
      vertex 11.6 0 -8.2
      vertex 7.2625 -1.66688 -8.2
    endloop
  endfacet
  facet normal 0 0 -1
    outer loop
      vertex 0 0 -8.2
      vertex 3.06688 -2.9375 -8.2
      vertex 2.675 -4.4 -8.2
    endloop
  endfacet
  facet normal 0 0 -1
    outer loop
      vertex 5.8 -1.275 -8.2
      vertex 0 0 -8.2
      vertex 11.6 0 -8.2
    endloop
  endfacet
  facet normal 0 0 -1
    outer loop
      vertex 4.3375 -1.66688 -8.2
      vertex 0 0 -8.2
      vertex 5.8 -1.275 -8.2
    endloop
  endfacet
  facet normal 0 0 -1
    outer loop
      vertex 4.2375 -1.69367 -8.2
      vertex 0 0 -8.2
      vertex 4.3375 -1.66688 -8.2
    endloop
  endfacet
  facet normal 0 0 -1
    outer loop
      vertex 3.09367 -2.8375 -8.2
      vertex 0 0 -8.2
      vertex 4.2375 -1.69367 -8.2
    endloop
  endfacet
  facet normal 0 0 -1
    outer loop
      vertex 3.06688 -2.9375 -8.2
      vertex 0 0 -8.2
      vertex 3.09367 -2.8375 -8.2
    endloop
  endfacet
  facet normal 0 0 -1
    outer loop
      vertex 2.21 -10 -8.2
      vertex 0 0 -8.2
      vertex 2.675 -4.4 -8.2
    endloop
  endfacet
  facet normal 0 0 -1
    outer loop
      vertex 0 0 -8.2
      vertex 2.21 -10 -8.2
      vertex 0 -43 -8.2
    endloop
  endfacet
  facet normal 0 0 -1
    outer loop
      vertex 8.53312 -37.1375 -8.2
      vertex 9.39 -33 -8.2
      vertex 8.925 -38.6 -8.2
    endloop
  endfacet
  facet normal 0 0 -1
    outer loop
      vertex 8.50633 -37.0375 -8.2
      vertex 9.39 -33 -8.2
      vertex 8.53312 -37.1375 -8.2
    endloop
  endfacet
  facet normal 0 0 -1
    outer loop
      vertex 7.3625 -35.8937 -8.2
      vertex 9.39 -33 -8.2
      vertex 8.50633 -37.0375 -8.2
    endloop
  endfacet
  facet normal 0 0 -1
    outer loop
      vertex 7.2625 -35.8669 -8.2
      vertex 9.39 -33 -8.2
      vertex 7.3625 -35.8937 -8.2
    endloop
  endfacet
  facet normal 0 0 -1
    outer loop
      vertex 5.8 -35.475 -8.2
      vertex 9.39 -33 -8.2
      vertex 7.2625 -35.8669 -8.2
    endloop
  endfacet
  facet normal 0 0 -1
    outer loop
      vertex 2.21 -33 -8.2
      vertex 5.8 -35.475 -8.2
      vertex 4.3375 -35.8669 -8.2
    endloop
  endfacet
  facet normal 0 0 -1
    outer loop
      vertex 2.21 -33 -8.2
      vertex 4.3375 -35.8669 -8.2
      vertex 4.2375 -35.8937 -8.2
    endloop
  endfacet
  facet normal 0 0 -1
    outer loop
      vertex 5.8 -35.475 -8.2
      vertex 2.21 -33 -8.2
      vertex 9.39 -33 -8.2
    endloop
  endfacet
  facet normal 0 0 -1
    outer loop
      vertex 3.09367 -37.0375 -8.2
      vertex 2.21 -33 -8.2
      vertex 4.2375 -35.8937 -8.2
    endloop
  endfacet
  facet normal 0 0 -1
    outer loop
      vertex 3.06688 -37.1375 -8.2
      vertex 2.21 -33 -8.2
      vertex 3.09367 -37.0375 -8.2
    endloop
  endfacet
  facet normal 0 0 -1
    outer loop
      vertex 2.21 -33 -8.2
      vertex 3.06688 -37.1375 -8.2
      vertex 2.675 -38.6 -8.2
    endloop
  endfacet
  facet normal 0 0 1
    outer loop
      vertex 1.2 -31.7 0
      vertex 0 -31.7 0
      vertex 1.2 -41.8 0
    endloop
  endfacet
  facet normal 0 0 1
    outer loop
      vertex 10.4 -41.8 0
      vertex 11.6 -31.7 0
      vertex 10.4 -31.7 0
    endloop
  endfacet
  facet normal 0 0 1
    outer loop
      vertex 11.6 -31.7 0
      vertex 10.4 -41.8 0
      vertex 11.6 -43 0
    endloop
  endfacet
  facet normal -0 0 1
    outer loop
      vertex 1.2 -41.8 0
      vertex 11.6 -43 0
      vertex 10.4 -41.8 0
    endloop
  endfacet
  facet normal 0 0 1
    outer loop
      vertex 1.2 -41.8 0
      vertex 0 -43 0
      vertex 11.6 -43 0
    endloop
  endfacet
  facet normal 0 0 1
    outer loop
      vertex 0 -43 0
      vertex 1.2 -41.8 0
      vertex 0 -31.7 0
    endloop
  endfacet
  facet normal 0 0 1
    outer loop
      vertex 11.6 0 0
      vertex 10.4 -1.2 0
      vertex 11.6 -23.7 0
    endloop
  endfacet
  facet normal 0 0 1
    outer loop
      vertex 11.6 0 0
      vertex 1.2 -1.2 0
      vertex 10.4 -1.2 0
    endloop
  endfacet
  facet normal -0 0 1
    outer loop
      vertex 0 0 0
      vertex 1.2 -1.2 0
      vertex 11.6 0 0
    endloop
  endfacet
  facet normal 0 0 1
    outer loop
      vertex 0 -23.7 0
      vertex 1.2 -1.2 0
      vertex 0 0 0
    endloop
  endfacet
  facet normal 0 0 1
    outer loop
      vertex 1.2 -1.2 0
      vertex 0 -23.7 0
      vertex 1.2 -23.7 0
    endloop
  endfacet
  facet normal 0 0 1
    outer loop
      vertex 11.6 -23.7 0
      vertex 10.4 -1.2 0
      vertex 10.4 -23.7 0
    endloop
  endfacet
  facet normal -1 0 0
    outer loop
      vertex 0 0 -8.2
      vertex 0 -23.7 -1.3
      vertex 0 0 0
    endloop
  endfacet
  facet normal -1 0 0
    outer loop
      vertex 0 -43 -8.2
      vertex 0 -23.7 -1.3
      vertex 0 0 -8.2
    endloop
  endfacet
  facet normal -1 -0 0
    outer loop
      vertex 0 -23.7 -1.3
      vertex 0 -43 -8.2
      vertex 0 -31.7 -1.3
    endloop
  endfacet
  facet normal -1 0 0
    outer loop
      vertex 0 -43 0
      vertex 0 -31.7 -1.3
      vertex 0 -43 -8.2
    endloop
  endfacet
  facet normal -1 0 0
    outer loop
      vertex 0 -31.7 -1.3
      vertex 0 -43 0
      vertex 0 -31.7 0
    endloop
  endfacet
  facet normal -1 -0 0
    outer loop
      vertex 0 0 0
      vertex 0 -23.7 -1.3
      vertex 0 -23.7 0
    endloop
  endfacet
  facet normal 0 -1 0
    outer loop
      vertex 0 -43 -8.2
      vertex 11.6 -43 0
      vertex 0 -43 0
    endloop
  endfacet
  facet normal 0 -1 -0
    outer loop
      vertex 11.6 -43 0
      vertex 0 -43 -8.2
      vertex 11.6 -43 -8.2
    endloop
  endfacet
  facet normal 0 1 -0
    outer loop
      vertex 11.6 0 -8.2
      vertex 0 0 0
      vertex 11.6 0 0
    endloop
  endfacet
  facet normal 0 1 0
    outer loop
      vertex 0 0 0
      vertex 11.6 0 -8.2
      vertex 0 0 -8.2
    endloop
  endfacet
endsolid OpenSCAD_Model
